PathFileType	4	(X/Y/Z)	38_1_21_p0_0-324_filt_butterworth.trc
DataRate	CameraRate	NumFrames	NumMarkers	Units	OrigDataRate	OrigDataStartFrame	OrigNumFrames
60.0	60.0	5	27	m	60.0	81	324
Frame#	Time	RHip			RKnee			RAnkle			RBigToe			RSmallToe			RHeel			LHip			LKnee			LAnkle			LBigToe			LSmallToe			LHeel			Neck			Head			Nose			RShoulder			RElbow			RWrist			RThumb			RIndex			RPinky			LShoulder			LElbow			LWrist			LThumb			LIndex			LPinky			
		X1	Y1	Z1	X2	Y2	Z2	X3	Y3	Z3	X4	Y4	Z4	X5	Y5	Z5	X6	Y6	Z6	X7	Y7	Z7	X8	Y8	Z8	X9	Y9	Z9	X10	Y10	Z10	X11	Y11	Z11	X12	Y12	Z12	X13	Y13	Z13	X14	Y14	Z14	X15	Y15	Z15	X16	Y16	Z16	X17	Y17	Z17	X18	Y18	Z18	X19	Y19	Z19	X20	Y20	Z20	X21	Y21	Z21	X22	Y22	Z22	X23	Y23	Z23	X24	Y24	Z24	X25	Y25	Z25	X26	Y26	Z26	X27	Y27	Z27	
81	1.35	0.38670198037706577	0.6989245725957609	0.5366056870554294	0.3988623255666155	0.9084195325445861	0.9579038890453815	0.36692848556992114	1.071405817683378	1.3691680595108005	0.3209123414857888	0.8855738779880323	1.4330457291982102	0.38488999031508736	0.8925194962928213	1.4338856525877692	0.3519885700247992	1.1621917639159751	1.4118191530003716	0.1775320855210642	0.7416135550055986	0.5237827852140932	0.18705821459142113	0.9233895755535205	0.9470377412448063	0.1818152188159842	1.0492178636721856	1.3316521070292273	0.17182071698549703	0.8990857228714189	1.4172977527505168	0.12107315042503329	0.9347802533894493	1.4070763823370185	0.20724284353553418	1.1550481426213939	1.4108488944511437	0.288380384474771	0.5489328511654659	-0.08645356552755326	0.28353375241146417	0.46955070406659116	-0.33321718126758326	0.27130885791509224	0.41986449487441313	-0.17991548786845857	0.4702530751911469	0.596254153045309	0.019833877437361265	0.5148681582945218	0.6424224057279744	0.32393608936009555	0.4769938326752316	0.6552580199136081	0.5928768911486115	0.4127359761024253	0.7062821218187393	0.7076405297864728	0.4218096107985698	0.7283656297474692	0.7488712971862614	0.4663002391632908	0.753900585213467	0.7346186158112895	0.12321348273346139	0.6428480432507427	-0.00847137388921274	0.06987100318722927	0.7339559527527303	0.26389282360280164	0.07002358791269897	0.7121381328700559	0.5341274747968145	0.10819932161061484	0.7354047066667266	0.648475043713322	0.08669471476307951	0.7345211965235635	0.7047734044952402	0.05140515898532785	0.8079378149036858	0.6757962499088125
82	1.3666666666666667	0.38670261519993543	0.6989512832915611	0.5365789467239676	0.3988903860095518	0.9086152650412016	0.9579799309193157	0.3675414164520311	1.0730158889170007	1.3691215578461233	0.3213106581463052	0.8865841538752882	1.4328113668937352	0.38616975495927947	0.8941026215220033	1.4340759505810696	0.35184843555229317	1.161798095964992	1.4112985854140987	0.1770556122746631	0.7417388646004563	0.5233187450766319	0.18664497532357963	0.9256010086398535	0.9474007713416339	0.18186005347451872	1.0488336856689886	1.3331065479381423	0.17184143610699232	0.8991315889921712	1.4173124895672347	0.12110159268721542	0.9347600599113196	1.4069628324781192	0.2071511720427559	1.1545171839083885	1.4104707723705043	0.2884015019954056	0.5490104130936743	-0.08568862132024908	0.283561958861543	0.4696116418000093	-0.33325599734715516	0.2717253618321719	0.41838391871038855	-0.179920308957139	0.47018928012870115	0.5960603547803335	0.019558654013507957	0.5147427738000577	0.6420988468337816	0.3233445325581739	0.4770540193949886	0.6553651136072224	0.5928666456801147	0.41305776358884466	0.7067883663618006	0.7076824759894391	0.4236737558994223	0.7324569767813549	0.7478487664077127	0.46956938159234	0.7576275380268813	0.7337443005358011	0.12328694559056276	0.6430901646982491	-0.008233097866257859	0.06944927068874053	0.7335878446411254	0.26392456866078917	0.0708797994350394	0.7083239369563276	0.5339430922596012	0.10874599267918422	0.7304811853551426	0.6483562236918042	0.08626334951714518	0.7345766158691139	0.7046527626158261	0.053000365755454165	0.8000506622891743	0.6744278302091411
83	1.3833333333333333	0.38674302691312534	0.6991055951052927	0.5365827006851325	0.39888900024384055	0.9088565729312759	0.9581020320301998	0.36754168173309404	1.0730058168445997	1.3690994747411978	0.32128959064968143	0.8865141162410033	1.4327779544751098	0.3866060105961528	0.8969457644943913	1.435235757281795	0.35181874606506724	1.1617062668366214	1.4113095872163033	0.17593854827026545	0.7417501484434382	0.5232874553749992	0.1857728093349681	0.9302657087329352	0.9481262216079107	0.1819646158658887	1.0485566214779405	1.3341059810266545	0.1718511136212009	0.8992089037499198	1.417368997046486	0.12114692596707588	0.9347069506857166	1.407066990826215	0.20709244545130046	1.153695418787657	1.4097823508055254	0.28844750294657623	0.5491152806557184	-0.08458842351811738	0.2847307081153573	0.46849712687173484	-0.3330147642661787	0.2728502172773824	0.41510914962011225	-0.17963324717152246	0.4695462469185249	0.5945725815785293	0.018865513555953072	0.5144223530597879	0.6412392959674658	0.3214894154166064	0.4770392708821548	0.6547505199360018	0.592815059561044	0.41318961741297155	0.7069680199070066	0.7077332713822936	0.42524045955151035	0.7353803581516873	0.7470654630859779	0.4730516502136435	0.7622729244249208	0.7332651245040591	0.12330120197480776	0.6429279823550477	-0.007673524310946323	0.0683461921506845	0.7329910264236915	0.26399432777089377	0.07202546811042178	0.7034649582789456	0.5338693572789187	0.10936581074798737	0.724083723959868	0.6490110646039386	0.08429537986737014	0.7339909248106977	0.7045288346146568	0.05372954426810096	0.7908734264703117	0.6733393757361502
84	1.4	0.3867898245311002	0.6992479593242488	0.5365256300469039	0.39884493627651324	0.9091056198850282	0.9582521373229583	0.3673864661681325	1.0725704818858572	1.3690941080840766	0.32120180075049704	0.8862938094220724	1.4332116358938582	0.3865313836943679	0.9002548843279209	1.436791183535369	0.35182074353564724	1.1616925142504406	1.4114405069616525	0.17445255226326217	0.7416796481564852	0.5233671536575035	0.1847202786230949	0.9361407666737587	0.949039720546253	0.18245069015885867	1.0486188861185932	1.334089751952112	0.1718469924066896	0.8993330729022379	1.417440080581548	0.12118374612707758	0.9345682554315338	1.4076932597896212	0.20705336236484373	1.152883457262339	1.4090852919577368	0.2884938007019187	0.5491785726602324	-0.0837455183901432	0.2866534555395882	0.4654856639075793	-0.33228813160738746	0.2749986876147274	0.4110314280591633	-0.17889489336345565	0.46807626960221993	0.5914252702514782	0.01804368631893957	0.5139454917722024	0.6399404996561415	0.3185201738890642	0.4770847905499784	0.6543519454638002	0.5927571400269893	0.41309869270480426	0.7068635602018059	0.7078093329347054	0.42609251741122917	0.7363776976853665	0.7467491173777883	0.4750921353858658	0.7656314572659181	0.7329252609834903	0.12296344858501143	0.6419043740498894	-0.006150799562775845	0.06687969137357704	0.7323549062921276	0.26408755509379017	0.07294746775100613	0.700041082967809	0.5342805413910832	0.10984225901857265	0.7191077631184096	0.6499039240842615	0.0816444096448958	0.7330034304451709	0.704422653484503	0.0541455227616435	0.7816683116819512	0.6730502437034126
85	1.4166666666666667	0.38680239518604187	0.6992532651941306	0.5364611945581669	0.39878026252358506	0.909306502109424	0.9583713168922516	0.3672839356998689	1.0722778434543978	1.3690959832038392	0.3212629214455527	0.8864450877301817	1.4343040199060413	0.38640913702907154	0.9023374824617212	1.4377603594422006	0.35182589713630696	1.1616919337041225	1.4115249151094567	0.17328535109363336	0.7416445456461553	0.5234394742416175	0.18398082557691464	0.9405692293522799	0.949734851945184	0.183595744571743	1.0491092813536087	1.3330989911287754	0.1718380966802933	0.8994794360190327	1.4174771437973834	0.12117835002273752	0.934422100690639	1.4089889500304618	0.20702356920289924	1.1524908757651664	1.4087381896770685	0.28852352301274725	0.5491778541509585	-0.08340560002778599	0.2884785997805235	0.4614159436131361	-0.3312748377056159	0.27805516109125766	0.4078957816987335	-0.17791400099640914	0.46622253771276473	0.5876670722236338	0.01785020688728931	0.5135598016759705	0.6388148014532401	0.3159288678799833	0.47756103750189255	0.6565004842680233	0.592816819903152	0.41285826534365155	0.7066787193549956	0.7078780112852248	0.42640128230181756	0.7362765326696057	0.7467525687125715	0.47546647100617356	0.7668075729675718	0.7325502606455881	0.12197891884836377	0.6393993462856251	-0.003986174759196162	0.06575904592180319	0.7319332812814182	0.2641586374355824	0.07342615047943489	0.6991926402734371	0.5354061783987605	0.11009164944671931	0.716958341617273	0.6504357267986733	0.07964650884060666	0.7321323190295747	0.7043592964478969	0.05439694361557596	0.7753922056534438	0.6733527560677877
